HIERARCHY
ROOT hip
{
	OFFSET 0.000000 0.000000 0.000000
	CHANNELS 6 Xposition Yposition Zposition Xrotation Zrotation Yrotation 
	JOINT abdomen
	{
		OFFSET 0.000000 3.422050 0.000000
		CHANNELS 3 Xrotation Zrotation Yrotation 
		JOINT chest
		{
			OFFSET 0.000000 8.486693 -0.684411
			CHANNELS 3 Xrotation Zrotation Yrotation 
			JOINT neck
			{
				OFFSET 0.000000 10.266162 -0.273764
				CHANNELS 3 Xrotation Zrotation Yrotation 
				JOINT head
				{
					OFFSET 0.000000 3.148285 0.000000
					CHANNELS 3 Xrotation Zrotation Yrotation 
					End Site
					{
						OFFSET 0.000000 3.148289 0.000000
					}
				}
			}
			JOINT lCollar
			{
				OFFSET 3.422053 6.707223 -0.821293
				CHANNELS 3 Yrotation Zrotation Xrotation 
				JOINT lShldr
				{
					OFFSET 3.285171 0.000000 0.000000
					CHANNELS 3 Zrotation Yrotation Xrotation 
					JOINT lForeArm
					{
						OFFSET 10.129278 0.000000 0.000000
						CHANNELS 3 Yrotation Zrotation Xrotation 
						JOINT lHand
						{
							OFFSET 8.486692 0.000000 0.000000
							CHANNELS 3 Zrotation Yrotation Xrotation 
							End Site
							{
								OFFSET 4.106464 0.000000 0.000000
							}
						}
					}
				}
			}
			JOINT rCollar
			{
				OFFSET -3.558935 6.707223 -0.821293
				CHANNELS 3 Yrotation Zrotation Xrotation 
				JOINT rShldr
				{
					OFFSET -3.148289 0.000000 0.000000
					CHANNELS 3 Zrotation Yrotation Xrotation 
					JOINT rForeArm
					{
						OFFSET -10.266159 0.000000 0.000000
						CHANNELS 3 Yrotation Zrotation Xrotation 
						JOINT rHand
						{
							OFFSET -8.349810 0.000000 0.000000
							CHANNELS 3 Zrotation Yrotation Xrotation 
							End Site
							{
								OFFSET -4.106464 0.000000 0.000000
							}
						}
					}
				}
			}
		}
	}
	JOINT lThigh
	{
		OFFSET 5.338403 -1.642589 1.368821
		CHANNELS 3 Xrotation Zrotation Yrotation 
		JOINT lShin
		{
			OFFSET -2.053232 -20.121670 0.000000
			CHANNELS 3 Xrotation Zrotation Yrotation 
			JOINT lFoot
			{
				OFFSET 0.000000 -19.300380 -1.231939
				CHANNELS 3 Xrotation Yrotation Zrotation 
				End Site
				{
					OFFSET 0.000000 -2.463878 4.653993
				}
			}
		}
	}
	JOINT rThigh
	{
		OFFSET -5.338403 -1.642589 1.368821
		CHANNELS 3 Xrotation Zrotation Yrotation 
		JOINT rShin
		{
			OFFSET 2.053232 -20.121670 0.000000
			CHANNELS 3 Xrotation Zrotation Yrotation 
			JOINT rFoot
			{
				OFFSET 0.000000 -19.300380 -1.231939
				CHANNELS 3 Xrotation Yrotation Zrotation 
				End Site
				{
					OFFSET 0.000000 -2.463878 4.653993
				}
			}
		}
	}
}
MOTION
Frames: 8
Frame Time: 0.050000
0.000000 43.528500 0.000000 0.000000 0.000000 0.000000 0.000000 0.000000 0.000000 0.000000 0.000000 0.000000 0.000000 0.000000 0.000000 0.000000 0.000000 0.000000 0.000000 0.000000 0.000000 0.000000 0.000000 0.000000 0.000000 0.000000 0.000000 0.000000 0.000000 0.000000 0.000000 0.000000 0.000000 0.000000 0.000000 0.000000 0.000000 0.000000 0.000000 0.000000 0.000000 0.000000 0.000000 0.000000 0.000000 0.000000 0.000000 0.000000 0.000000 0.000000 0.000000 0.000000 0.000000 0.000000 0.000000 0.000000 0.000000 0.000000 0.000000 0.000000 
0.000000 25.196680 5.487841 -12.997079 0.000000 180.000000 -22.495262 -3.064750 -2.542057 9.645576 1.949688 -0.416399 35.999882 8.998122 -0.000786 -1.001933 0.000000 0.000000 2.185091 -24.246143 -9.752526 -55.340523 -65.614006 7.620320 17.786802 -44.068909 54.827778 -31.979359 -7.648396 4.135859 -16.763100 -5.664403 -14.537626 116.546074 80.928673 65.454018 70.288589 38.498173 -51.997505 45.044624 21.032576 -11.596037 -25.880409 7.427382 -7.764505 20.726213 -4.662776 -5.524233 -9.727081 13.350938 -7.242558 -27.951214 -6.667549 7.494841 25.434639 5.201534 6.047580 -12.454389 -13.096809 5.797886 
0.000000 25.196680 5.424993 -12.458504 0.000000 180.000000 -22.495262 -3.064750 -2.542058 10.183810 1.949720 -0.416398 36.537849 8.998159 -0.000863 -3.363849 0.000000 0.000000 1.787489 -24.305006 -9.768917 -54.801949 -65.430321 7.150719 17.786804 -44.068909 54.827782 -31.979359 -7.648396 4.135859 -15.868560 -5.876068 -14.208076 116.546074 80.928696 65.454010 70.288589 38.498173 -51.997505 42.973206 20.945442 -11.569720 -25.107040 7.629253 -7.111890 20.726213 -4.662776 -5.524233 -9.760530 12.679272 -7.241044 -27.193050 -6.887920 6.848736 25.434641 5.201534 6.047580 -12.501132 -12.421902 5.805491 
0.000000 25.196680 5.362144 -11.920217 0.000000 180.000000 -22.495262 -3.064750 -2.542057 10.722175 1.949753 -0.416396 37.075939 8.998194 -0.000940 -5.737028 0.000000 0.000000 1.389632 -24.363775 -9.785766 -54.270725 -65.244820 6.688504 17.786802 -44.068909 54.827778 -31.979357 -7.648396 4.135859 -14.971804 -6.082742 -13.874873 116.546021 80.928635 65.453957 70.288582 38.498173 -51.997505 40.895302 20.858931 -11.539943 -24.330418 7.822503 -6.455760 20.726213 -4.662776 -5.524233 -9.793886 12.007352 -7.239933 -26.431484 -7.099926 6.198945 25.434637 5.201534 6.047580 -12.547873 -11.746745 5.813645 
0.000000 25.196680 5.299297 -11.381835 0.000000 180.000000 -22.495262 -3.064750 -2.542057 11.260649 1.949785 -0.416393 37.614140 8.998231 -0.001017 -8.119503 0.000000 0.000000 0.991528 -24.422441 -9.803073 -53.746738 -65.057495 6.233606 17.786802 -44.068909 54.827778 -31.979359 -7.648396 4.135859 -14.072948 -6.284318 -13.538115 116.546074 80.928673 65.454018 70.288589 38.498173 -51.997505 38.812256 20.773239 -11.506752 -23.550772 8.007028 -5.796325 20.726213 -4.662776 -5.524233 -9.827162 11.335225 -7.239225 -25.666702 -7.303453 5.545654 25.434639 5.201534 6.047580 -12.594613 -11.071382 5.822343 
0.000000 25.196680 5.236449 -10.843380 0.000000 180.000000 -22.495262 -3.064750 -2.542057 11.799203 1.949818 -0.416391 38.152420 8.998268 -0.001093 -10.509259 0.000000 0.000000 0.593187 -24.481001 -9.820835 -53.229923 -64.868462 5.785927 17.786802 -44.068909 54.827778 -31.979359 -7.648396 4.135859 -13.172138 -6.480707 -13.197926 116.546143 80.928703 65.454079 70.288589 38.498173 -51.997505 36.725407 20.688528 -11.470179 -22.768276 8.182715 -5.133786 20.726213 -4.662776 -5.524233 -9.860359 10.662933 -7.238915 -24.898916 -7.498392 4.889063 25.434641 5.201534 6.047580 -12.641365 -10.395860 5.831583 
0.000000 25.196680 5.173601 -10.304870 0.000000 180.000000 -22.495260 -3.064750 -2.542057 12.337822 1.949851 -0.416388 38.690758 8.998305 -0.001170 -12.904245 0.000000 0.000000 0.194616 -24.539446 -9.839053 -52.720192 -64.677742 5.345372 17.786802 -44.068905 54.827770 -31.979359 -7.648396 4.135859 -12.269508 -6.671816 -12.854415 116.546074 80.928665 65.454010 70.288589 38.498169 -51.997501 34.636120 20.604975 -11.430283 -21.983168 8.349475 -4.468359 20.726212 -4.662775 -5.524232 -9.893488 9.990526 -7.239003 -24.128300 -7.684635 4.229368 25.434637 5.201534 6.047579 -12.688136 -9.720226 5.841365 
0.000000 25.196680 5.110753 -9.766337 0.000000 180.000000 -22.495262 -3.064750 -2.542057 12.876469 1.949883 -0.416385 39.229134 8.998343 -0.001245 -15.302379 0.000000 0.000000 -0.204176 -24.597788 -9.857733 -52.217434 -64.485344 4.911858 17.786802 -44.068909 54.827778 -31.979359 -7.648396 4.135859 -11.365206 -6.857559 -12.507712 116.546074 80.928673 65.454018 70.288589 38.498173 -51.997505 32.545792 20.522757 -11.387136 -21.195650 8.507215 -3.800261 20.726212 -4.662775 -5.524233 -9.926554 9.318049 -7.239483 -23.355080 -7.862091 3.566780 25.434639 5.201534 6.047580 -12.734939 -9.044532 5.851688 
